<?xml version="1.0" encoding="UTF-8" standalone="no"?>
<!-- Generator: Adobe Illustrator 16.0.0, SVG Export Plug-In . SVG Version: 6.00 Build 0)  -->
<!DOCTYPE svg  PUBLIC '-//W3C//DTD SVG 1.1//EN'  'http://www.w3.org/Graphics/SVG/1.1/DTD/svg11.dtd' [
	<!ENTITY ns_extend "http://ns.adobe.com/Extensibility/1.0/">
	<!ENTITY ns_ai "http://ns.adobe.com/AdobeIllustrator/10.0/">
	<!ENTITY ns_graphs "http://ns.adobe.com/Graphs/1.0/">
	<!ENTITY ns_vars "http://ns.adobe.com/Variables/1.0/">
	<!ENTITY ns_imrep "http://ns.adobe.com/ImageReplacement/1.0/">
	<!ENTITY ns_sfw "http://ns.adobe.com/SaveForWeb/1.0/">
	<!ENTITY ns_custom "http://ns.adobe.com/GenericCustomNamespace/1.0/">
	<!ENTITY ns_adobe_xpath "http://ns.adobe.com/XPath/1.0/">
]>
<svg id="logo" xmlns="http://www.w3.org/2000/svg" enable-background="new 0 0 20 20" xml:space="preserve" height="20px" viewBox="0 0 20 20" width="20px" version="1.1" y="0px" x="0px" xmlns:xlink="http://www.w3.org/1999/xlink">
<g id="point">
	<path id="point_1_" opacity=".5" d="m16.25 8.068v1.561c0.975 0.755 1.559 1.691 1.559 2.712 0 2.485-3.435 4.501-7.671 4.501-4.237 0-7.671-2.016-7.671-4.501 0-0.922 0.474-1.778 1.284-2.492v-1.779c-2.061 0.993-3.456 2.463-3.707 4.134h-0.044v6.548h10.411v-0.007c5.332-0.13 9.589-2.765 9.589-5.995 0-1.895-1.466-3.582-3.75-4.682z" enable-background="new    " fill="#fff"/>
</g>
<g id="house" fill="#fff">
	<path id="h4" d="m10 9.731v6.205l2.083-1.379v-2.344c0-0.887 0.47-1.5 0.625-1.656l0.625-0.412c0.372-0.246 0.834 0.276 0.834 0.619v2.414l2.083-1.379v-6.207l-6.25 4.139z"/>
	<path id="h3" opacity=".8" d="m13.333 3.565v-1.075l-0.833-0.413v0.91l-2.5-1.738v8.482l-6.25-4.139v6.207l6.25 4.137v-6.205l6.25-4.139-2.917-2.027zm-6.875 8.13l-1.458-0.931v-1.861l1.458 0.932v1.86zm2.292 1.436l-1.458-0.918v-1.863l1.458 0.917v1.864z" enable-background="new    "/>
	<path id="h2" opacity=".6" d="m10 9.731v-8.482l-6.25 4.343 6.25 4.139m3.333-7.241l-0.833-0.413 0.833-0.414 0.834 0.414-0.834 0.413z" enable-background="new    "/>
	<path id="h1" d="m13.333 2.49l0.834-0.414v2.688l-0.834 0.414v-2.688z"/>
</g>
</svg>
