<?xml version="1.0" encoding="UTF-8" standalone="no"?>
<!-- Generator: Adobe Illustrator 16.0.0, SVG Export Plug-In . SVG Version: 6.00 Build 0)  -->
<!DOCTYPE svg  PUBLIC '-//W3C//DTD SVG 1.1//EN'  'http://www.w3.org/Graphics/SVG/1.1/DTD/svg11.dtd' [
	<!ENTITY ns_extend "http://ns.adobe.com/Extensibility/1.0/">
	<!ENTITY ns_ai "http://ns.adobe.com/AdobeIllustrator/10.0/">
	<!ENTITY ns_graphs "http://ns.adobe.com/Graphs/1.0/">
	<!ENTITY ns_vars "http://ns.adobe.com/Variables/1.0/">
	<!ENTITY ns_imrep "http://ns.adobe.com/ImageReplacement/1.0/">
	<!ENTITY ns_sfw "http://ns.adobe.com/SaveForWeb/1.0/">
	<!ENTITY ns_custom "http://ns.adobe.com/GenericCustomNamespace/1.0/">
	<!ENTITY ns_adobe_xpath "http://ns.adobe.com/XPath/1.0/">
]>
<svg id="Layer_1" xmlns="http://www.w3.org/2000/svg" enable-background="new 0 0 44 44" xml:space="preserve" height="44px" viewBox="0 0 44 44" width="44px" version="1.1" y="0px" x="0px" xmlns:xlink="http://www.w3.org/1999/xlink">
		<path d="m44 12.895v-2.17l-4.225-0.846c-0.197-0.678-0.524-1.314-0.89-1.9l2.307-3.473-1.535-1.531-3.559 2.368c-0.604-0.334-1.261-0.568-1.951-0.728l-0.826-4.057h-2.171l-0.846 4.158c-0.678 0.197-1.314 0.458-1.9 0.824l-3.473-2.306-1.53 1.535 2.37 3.558c-0.333 0.604-0.563 1.26-0.723 1.95l-4.048 0.827v2.17l4.15 0.847c0.196 0.679 0.449 1.317 0.815 1.903l-2.307 3.476 1.535 1.54 3.559-2.354c0.604 0.333 1.26 0.597 1.951 0.757l0.826 4.115h2.171l0.847-4.217c0.679-0.197 1.317-0.516 1.902-0.882l3.478 2.307 1.54-1.536-2.352-3.559c0.333-0.605 0.602-1.26 0.761-1.951l4.124-0.825zm-11.574 2.376c-1.807 0-3.272-1.465-3.272-3.271 0-1.808 1.466-3.272 3.272-3.272s3.272 1.465 3.272 3.272c0 1.807-1.466 3.271-3.272 3.271zm-4.959 8.12l-5.312 0.887c-0.536-0.71-1.163-1.33-1.859-1.856l1.152-5.127-2.497-1.117-3.127 4.378c-0.861-0.12-1.746-0.119-2.631 0.003l-2.811-4.44-2.555 0.976 0.888 5.313c-0.711 0.538-1.329 1.168-1.855 1.863l-5.128-1.153-1.117 2.497 4.379 3.127c-0.123 0.86-0.119 1.745 0.004 2.63l-4.438 2.81 0.976 2.555 5.311-0.887c0.538 0.712 1.165 1.33 1.859 1.854l-1.152 5.129 2.497 1.117 3.127-4.382c0.861 0.122 1.745 0.119 2.63-0.004l2.812 4.436 2.554-0.977-0.887-5.309c0.711-0.538 1.332-1.163 1.856-1.857l5.13 1.151 1.116-2.496-4.38-3.126c0.12-0.862 0.118-1.746-0.005-2.631l4.438-2.811-0.975-2.553zm-11.492 10.526c-2.129 0.813-4.512-0.253-5.325-2.381-0.812-2.128 0.253-4.513 2.38-5.325s4.511 0.254 5.325 2.381c0.812 2.128-0.252 4.512-2.38 5.325z" fill="#fff"/>
</svg>
