<?xml version="1.0" encoding="UTF-8" standalone="no"?>
<!-- Generator: Adobe Illustrator 16.0.0, SVG Export Plug-In . SVG Version: 6.00 Build 0)  -->
<!DOCTYPE svg  PUBLIC '-//W3C//DTD SVG 1.1//EN'  'http://www.w3.org/Graphics/SVG/1.1/DTD/svg11.dtd' [
	<!ENTITY ns_extend "http://ns.adobe.com/Extensibility/1.0/">
	<!ENTITY ns_ai "http://ns.adobe.com/AdobeIllustrator/10.0/">
	<!ENTITY ns_graphs "http://ns.adobe.com/Graphs/1.0/">
	<!ENTITY ns_vars "http://ns.adobe.com/Variables/1.0/">
	<!ENTITY ns_imrep "http://ns.adobe.com/ImageReplacement/1.0/">
	<!ENTITY ns_sfw "http://ns.adobe.com/SaveForWeb/1.0/">
	<!ENTITY ns_custom "http://ns.adobe.com/GenericCustomNamespace/1.0/">
	<!ENTITY ns_adobe_xpath "http://ns.adobe.com/XPath/1.0/">
]>
<svg id="Layer_1" xmlns="http://www.w3.org/2000/svg" enable-background="new 0 0 44 44" xml:space="preserve" height="44px" viewBox="0 0 44 44" width="44px" version="1.1" y="0px" x="0px" xmlns:xlink="http://www.w3.org/1999/xlink">
		<path d="m5.463 21.206c-0.975 1.231-1.463 2.855-1.463 4.873 0 0.983 0.354 2.115 1.061 3.395s1.683 2.535 2.927 3.765c0.044 0.043 0.092 0.086 0.137 0.128l-0.6-13.824c-1.096 0.262-1.387 0.811-2.062 1.663zm29.891-8.415c-3.098-2.657-7.549-3.986-13.354-3.986-1.902 0-3.488 0.64-4.756 1.919-1.268 1.28-1.902 2.879-1.902 4.798 0 1.427-0.311 2.328-1.213 2.894 0 0.219-0.603 18.201-0.603 18.201 1.769 0.65 3.643 0.977 5.621 0.977 2.976 0 5.671-0.271 8.086-0.812 2.414-0.541 4.597-1.391 6.549-2.547 1.951-1.156 3.476-2.743 4.573-4.762 1.096-2.016 1.645-4.428 1.645-7.233 0-3.642-1.549-6.791-4.646-9.449zm-16.903 20.264c-0.463 0.467-1.024 0.7-1.683 0.7s-1.207-0.233-1.646-0.7c-0.438-0.468-0.658-1.034-0.658-1.699 0-0.662 0.219-1.229 0.658-1.697 0.439-0.467 0.988-0.7 1.646-0.7s1.22 0.233 1.683 0.7c0.463 0.468 0.695 1.035 0.695 1.697 0 0.665-0.232 1.23-0.695 1.699zm0.695-17.532c0-0.788 0.28-1.464 0.841-2.03 0.562-0.566 1.232-0.85 2.012-0.85s1.451 0.283 2.012 0.85c0.563 0.565 0.842 1.243 0.842 2.03s-0.28 1.463-0.842 2.029c-0.561 0.566-1.231 0.85-2.012 0.85s-1.451-0.283-2.012-0.85c-0.561-0.565-0.841-1.242-0.841-2.029zm6.916 17.532c-0.463 0.467-1.024 0.7-1.684 0.7-0.658 0-1.219-0.233-1.683-0.7-0.463-0.469-0.695-1.034-0.695-1.7 0-0.662 0.232-1.229 0.695-1.697 0.463-0.467 1.024-0.7 1.683-0.7s1.22 0.233 1.684 0.7c0.463 0.468 0.695 1.035 0.695 1.697 0 0.666-0.233 1.231-0.695 1.7zm7.536-3.839c-0.464 0.468-1.024 0.7-1.684 0.7-0.657 0-1.219-0.232-1.684-0.7-0.462-0.468-0.694-1.034-0.694-1.698s0.232-1.23 0.694-1.698c0.464-0.467 1.026-0.7 1.684-0.7 0.659 0 1.22 0.233 1.684 0.7 0.463 0.468 0.694 1.034 0.694 1.698s-0.231 1.23-0.694 1.698zm-21.198-14.413c1.43-1.066 1.849-2.729 0.6-5.398-1.248-2.669-0.925-5.152-0.6-5.398-2.052 1.047-7.472 4.594-3 10.796 1.817 0.699 3 0 3 0zm-3 1.199c-0.302 1.349-0.559 1.572-0.6 2.399-0.26 5.411 1.914 21.605 2.4 21.592 0.513-0.012 1.44-8.667 1.8-21.592-0.063-0.787-0.28-1.144-0.6-2.399-0.519 0.122-1.721 0.399-3 0z" fill="#fff"/>
</svg>
