<?xml version="1.0" encoding="UTF-8" standalone="no"?>
<!-- Generator: Adobe Illustrator 16.0.0, SVG Export Plug-In . SVG Version: 6.00 Build 0)  -->
<!DOCTYPE svg  PUBLIC '-//W3C//DTD SVG 1.1//EN'  'http://www.w3.org/Graphics/SVG/1.1/DTD/svg11.dtd' [
	<!ENTITY ns_extend "http://ns.adobe.com/Extensibility/1.0/">
	<!ENTITY ns_ai "http://ns.adobe.com/AdobeIllustrator/10.0/">
	<!ENTITY ns_graphs "http://ns.adobe.com/Graphs/1.0/">
	<!ENTITY ns_vars "http://ns.adobe.com/Variables/1.0/">
	<!ENTITY ns_imrep "http://ns.adobe.com/ImageReplacement/1.0/">
	<!ENTITY ns_sfw "http://ns.adobe.com/SaveForWeb/1.0/">
	<!ENTITY ns_custom "http://ns.adobe.com/GenericCustomNamespace/1.0/">
	<!ENTITY ns_adobe_xpath "http://ns.adobe.com/XPath/1.0/">
]>
<svg id="Layer_1" xmlns="http://www.w3.org/2000/svg" enable-background="new 0 0 36 36" xml:space="preserve" height="36px" viewBox="0 0 36 36" width="36px" version="1.1" y="0px" x="0px" xmlns:xlink="http://www.w3.org/1999/xlink">
		<path d="m0 7v22h35v-22h-35zm33 20h-31v-18h31v18zm-16.191-5.036c-0.904 0-1.762-0.287-2.35-0.633l-0.331 1.05c0.542 0.346 1.611 0.619 2.59 0.619 2.395 0 3.555-1.295 3.555-2.791 0-1.425-0.874-2.216-2.591-2.849-1.4-0.518-2.018-0.964-2.018-1.871 0-0.662 0.527-1.453 1.913-1.453 0.919 0 1.597 0.288 1.928 0.46l0.361-1.022c-0.452-0.244-1.205-0.474-2.244-0.474-1.973 0-3.284 1.122-3.284 2.633 0 1.367 1.024 2.187 2.681 2.748 1.371 0.503 1.913 1.022 1.913 1.928 0.001 0.979-0.783 1.655-2.123 1.655zm-6.793 1.036c1.235 0 2.199-0.23 2.681-0.46l-0.271-0.993c-0.527 0.244-1.341 0.402-2.139 0.402-2.47 0-3.901-1.524-3.901-3.899 0-2.547 1.582-4 3.961-4 0.843 0 1.551 0.173 2.048 0.403l0.316-1.021c-0.346-0.173-1.144-0.432-2.409-0.432-3.148 0-5.302 2.058-5.302 5.093 0 3.18 2.154 4.907 5.016 4.907zm14.52-1.036c-0.904 0-1.763-0.287-2.351-0.633l-0.331 1.05c0.542 0.346 1.612 0.619 2.591 0.619 2.395 0 3.555-1.295 3.555-2.791 0-1.425-0.874-2.216-2.591-2.849-1.4-0.518-2.019-0.964-2.019-1.871 0-0.662 0.527-1.453 1.913-1.453 0.919 0 1.597 0.288 1.928 0.46l0.362-1.022c-0.451-0.244-1.204-0.474-2.244-0.474-1.973 0-3.283 1.122-3.283 2.633 0 1.367 1.024 2.187 2.682 2.748 1.37 0.503 1.912 1.022 1.912 1.928-0.001 0.979-0.784 1.655-2.124 1.655z" fill="#fff"/>
</svg>
