<?xml version="1.0" encoding="UTF-8" standalone="no"?>
<!-- Generator: Adobe Illustrator 16.0.0, SVG Export Plug-In . SVG Version: 6.00 Build 0)  -->
<!DOCTYPE svg  PUBLIC '-//W3C//DTD SVG 1.1//EN'  'http://www.w3.org/Graphics/SVG/1.1/DTD/svg11.dtd' [
	<!ENTITY ns_extend "http://ns.adobe.com/Extensibility/1.0/">
	<!ENTITY ns_ai "http://ns.adobe.com/AdobeIllustrator/10.0/">
	<!ENTITY ns_graphs "http://ns.adobe.com/Graphs/1.0/">
	<!ENTITY ns_vars "http://ns.adobe.com/Variables/1.0/">
	<!ENTITY ns_imrep "http://ns.adobe.com/ImageReplacement/1.0/">
	<!ENTITY ns_sfw "http://ns.adobe.com/SaveForWeb/1.0/">
	<!ENTITY ns_custom "http://ns.adobe.com/GenericCustomNamespace/1.0/">
	<!ENTITY ns_adobe_xpath "http://ns.adobe.com/XPath/1.0/">
]>
<svg id="Layer_1" xmlns="http://www.w3.org/2000/svg" enable-background="new 0 0 30 30" xml:space="preserve" height="30px" viewBox="0 0 30 30" width="30px" version="1.1" y="0px" x="0px" xmlns:xlink="http://www.w3.org/1999/xlink">
<path d="m22.832 3.607h-5.195v2.071h4.156c0.574 0 1.039 0.463 1.039 1.036v6.732l2.079-1.036v-6.731c0-1.144-0.931-2.072-2.079-2.072m-13.508 0h-5.195c-1.148 0-2.078 0.928-2.078 2.071v21.75c0 1.144 0.93 2.071 2.078 2.071h8.313v-2.071h-7.275c-0.573 0-1.038-0.463-1.038-1.036v-19.678c0-0.572 0.465-1.036 1.039-1.036h4.156v-2.071m16.116 10.472c-0.266 0-0.531 0.101-0.734 0.303l-9.122 9.093-2.938-2.931c-0.203-0.202-0.469-0.304-0.735-0.304s-0.531 0.102-0.733 0.304l-1.471 1.465c-0.406 0.405-0.406 1.061 0 1.465l3.674 3.661 0.001 0.001 1.469 1.465c0.203 0.202 0.469 0.304 0.735 0.304s0.532-0.102 0.735-0.304l11.326-11.289c0.404-0.404 0.404-1.06 0-1.464l-1.47-1.465c-0.203-0.203-0.47-0.304-0.737-0.304m-0.53 8.689l-2.078 1.036v2.589c0 0.573-0.465 1.036-1.039 1.036h-3.117v2.071h4.156c1.146 0 2.078-0.928 2.078-2.071v-4.661m-12.469-17.089v-2.072h2.078v2.071h-2.078m1.559-5.178h-1.04c-1.435 0-2.598 1.159-2.598 2.589v3.625h-2.597c-0.86 0-1.559 0.696-1.559 1.554v1.554h14.548v-1.554c0-0.858-0.698-1.554-1.559-1.554h-2.598v-3.625c0.001-1.43-1.162-2.589-2.597-2.589" fill="#fff"/>
</svg>
