<?xml version="1.0" encoding="UTF-8" standalone="no"?>
<!-- Generator: Adobe Illustrator 16.0.0, SVG Export Plug-In . SVG Version: 6.00 Build 0)  -->
<!DOCTYPE svg  PUBLIC '-//W3C//DTD SVG 1.1//EN'  'http://www.w3.org/Graphics/SVG/1.1/DTD/svg11.dtd' [
	<!ENTITY ns_extend "http://ns.adobe.com/Extensibility/1.0/">
	<!ENTITY ns_ai "http://ns.adobe.com/AdobeIllustrator/10.0/">
	<!ENTITY ns_graphs "http://ns.adobe.com/Graphs/1.0/">
	<!ENTITY ns_vars "http://ns.adobe.com/Variables/1.0/">
	<!ENTITY ns_imrep "http://ns.adobe.com/ImageReplacement/1.0/">
	<!ENTITY ns_sfw "http://ns.adobe.com/SaveForWeb/1.0/">
	<!ENTITY ns_custom "http://ns.adobe.com/GenericCustomNamespace/1.0/">
	<!ENTITY ns_adobe_xpath "http://ns.adobe.com/XPath/1.0/">
]>
<svg id="Layer_1" xmlns="http://www.w3.org/2000/svg" enable-background="new 0 0 56 50" xml:space="preserve" height="50px" viewBox="0 0 56 50" width="56px" version="1.1" y="0px" x="0px" xmlns:xlink="http://www.w3.org/1999/xlink">
		<path d="m4.551 21l-4.5 4 1.5 1.333 3 2.667 1.5-1.335-3-2.666 3-2.667-1.5-1.332zm6.5 15h35v-22h-35v22zm19.812-10.619c-1.623-0.561-2.626-1.381-2.626-2.748 0-1.511 1.284-2.633 3.217-2.633 1.018 0 1.756 0.23 2.198 0.475l-0.354 1.022c-0.324-0.173-0.988-0.46-1.889-0.46-1.357 0-1.874 0.791-1.874 1.453 0 0.906 0.605 1.353 1.978 1.871 1.683 0.633 2.538 1.424 2.538 2.849 0 1.496-1.136 2.791-3.482 2.791-0.959 0-2.007-0.273-2.538-0.619l0.325-1.05c0.576 0.346 1.417 0.633 2.302 0.633 1.313 0 2.08-0.676 2.08-1.654-0.001-0.908-0.532-1.426-1.875-1.93zm-9.812-5.223h5.356v1.05h-4.073v3.223h3.763v1.036h-3.763v4.389h-1.284v-9.698zm33.421 3.469l-2.955-2.698-1.478 1.349 2.955 2.697-2.955 2.697 1.478 1.35 2.955-2.697 1.478-1.348-1.478-1.35z" fill="#fff"/>
</svg>
