<?xml version="1.0" encoding="UTF-8" standalone="no"?>
<!-- Generator: Adobe Illustrator 16.0.0, SVG Export Plug-In . SVG Version: 6.00 Build 0)  -->
<!DOCTYPE svg  PUBLIC '-//W3C//DTD SVG 1.1//EN'  'http://www.w3.org/Graphics/SVG/1.1/DTD/svg11.dtd' [
	<!ENTITY ns_extend "http://ns.adobe.com/Extensibility/1.0/">
	<!ENTITY ns_ai "http://ns.adobe.com/AdobeIllustrator/10.0/">
	<!ENTITY ns_graphs "http://ns.adobe.com/Graphs/1.0/">
	<!ENTITY ns_vars "http://ns.adobe.com/Variables/1.0/">
	<!ENTITY ns_imrep "http://ns.adobe.com/ImageReplacement/1.0/">
	<!ENTITY ns_sfw "http://ns.adobe.com/SaveForWeb/1.0/">
	<!ENTITY ns_custom "http://ns.adobe.com/GenericCustomNamespace/1.0/">
	<!ENTITY ns_adobe_xpath "http://ns.adobe.com/XPath/1.0/">
]>
<svg id="Layer_1" xmlns="http://www.w3.org/2000/svg" enable-background="new 0 0 32 32" xml:space="preserve" height="32px" viewBox="0 0 32 32" width="32px" version="1.1" y="0px" x="0px" xmlns:xlink="http://www.w3.org/1999/xlink">
<path fill="#fff" clip-rule="evenodd" d="m16 32c-2.189 0-4.274-0.442-6.175-1.238l3.474-3.078c0.869 0.2 1.771 0.316 2.701 0.316 6.627 0 12-5.373 12-12v-0.007l4 0.002v0.005c0 8.837-7.163 16-16 16zm6-18l-16.153 15.988-0.016-0.022c-1.06 1.034-2.745 1.032-3.787-0.025-1.044-1.04-1.044-2.745-0.018-3.801l-0.019-0.022 15.901-16.024 1.092-7.094 6.463-2 0.803 0.815-4.02 4.052 3.931 3.951 4.016-4.055 0.807 0.812-2 6.425-7 1zm-17.271 13.235c-0.469-0.465-1.219-0.462-1.686 0.005-0.468 0.469-0.466 1.229 0 1.701 0.47 0.472 1.223 0.467 1.687 0 0.463-0.471 0.463-1.232-0.001-1.706zm-0.729-11.235c0 0.964 0.126 1.896 0.341 2.795l-3.096 3.397c-0.801-1.905-1.245-3.997-1.245-6.192 0-8.836 7.164-16 16-16v4c-6.627 0-12 5.373-12 12z" fill-rule="evenodd"/>
</svg>
