<?xml version="1.0" encoding="UTF-8" standalone="no"?>
<!-- Generator: Adobe Illustrator 16.0.0, SVG Export Plug-In . SVG Version: 6.00 Build 0)  -->
<!DOCTYPE svg  PUBLIC '-//W3C//DTD SVG 1.1//EN'  'http://www.w3.org/Graphics/SVG/1.1/DTD/svg11.dtd' [
	<!ENTITY ns_extend "http://ns.adobe.com/Extensibility/1.0/">
	<!ENTITY ns_ai "http://ns.adobe.com/AdobeIllustrator/10.0/">
	<!ENTITY ns_graphs "http://ns.adobe.com/Graphs/1.0/">
	<!ENTITY ns_vars "http://ns.adobe.com/Variables/1.0/">
	<!ENTITY ns_imrep "http://ns.adobe.com/ImageReplacement/1.0/">
	<!ENTITY ns_sfw "http://ns.adobe.com/SaveForWeb/1.0/">
	<!ENTITY ns_custom "http://ns.adobe.com/GenericCustomNamespace/1.0/">
	<!ENTITY ns_adobe_xpath "http://ns.adobe.com/XPath/1.0/">
]>
<svg id="Layer_1" xmlns="http://www.w3.org/2000/svg" enable-background="new 0 0 36 36" xml:space="preserve" height="36px" viewBox="0 0 36 36" width="36px" version="1.1" y="0px" x="0px" xmlns:xlink="http://www.w3.org/1999/xlink">
		<path fill="#fff" clip-rule="evenodd" d="m9 25v-1h-2v-11h2v-1h-3v13h3zm22 0v-13h-3v1h2v11h-2v1h3zm-30-18v22h35v-22h-35zm33 20h-31v-18h31v18zm-22-6h-2v2h2v-2zm3 0h-2v2h2v-2zm3 0h-2v2h2v-2zm3 0h-2v2h2v-2zm3 0h-2v2h2v-2zm3 0h-2v2h2v-2z" fill-rule="evenodd"/>
</svg>
