<?xml version="1.0" encoding="UTF-8" standalone="no"?>
<!-- Generator: Adobe Illustrator 16.0.0, SVG Export Plug-In . SVG Version: 6.00 Build 0)  -->
<!DOCTYPE svg  PUBLIC '-//W3C//DTD SVG 1.1//EN'  'http://www.w3.org/Graphics/SVG/1.1/DTD/svg11.dtd' [
	<!ENTITY ns_extend "http://ns.adobe.com/Extensibility/1.0/">
	<!ENTITY ns_ai "http://ns.adobe.com/AdobeIllustrator/10.0/">
	<!ENTITY ns_graphs "http://ns.adobe.com/Graphs/1.0/">
	<!ENTITY ns_vars "http://ns.adobe.com/Variables/1.0/">
	<!ENTITY ns_imrep "http://ns.adobe.com/ImageReplacement/1.0/">
	<!ENTITY ns_sfw "http://ns.adobe.com/SaveForWeb/1.0/">
	<!ENTITY ns_custom "http://ns.adobe.com/GenericCustomNamespace/1.0/">
	<!ENTITY ns_adobe_xpath "http://ns.adobe.com/XPath/1.0/">
]>
<svg id="Layer_1" xmlns="http://www.w3.org/2000/svg" enable-background="new 0 0 32 32" xml:space="preserve" height="32px" viewBox="0 0 32 32" width="32px" version="1.1" y="0px" x="0px" xmlns:xlink="http://www.w3.org/1999/xlink">
<g id="_x37_7_Essential_Icons_58_">
	<path id="Share" d="m25.08 21.104c-1.743 0-3.305 0.835-4.285 2.106l-8.827-5.122c0.545-1.344 0.545-2.833 0-4.176l8.827-5.122c0.98 1.271 2.542 2.106 4.285 2.106 3.016 0 5.449-2.434 5.449-5.448s-2.433-5.448-5.449-5.448c-3.014 0-5.447 2.434-5.447 5.448 0 0.727 0.145 1.453 0.398 2.07l-8.826 5.158c-1.017-1.271-2.542-2.107-4.286-2.107-3.015 0-5.448 2.434-5.448 5.448 0 3.016 2.434 5.449 5.448 5.449 1.744 0 3.306-0.836 4.286-2.107l8.826 5.122c-0.254 0.617-0.398 1.344-0.398 2.07 0 3.015 2.434 5.448 5.447 5.448 3.016 0 5.449-2.434 5.449-5.448s-2.433-5.447-5.449-5.447zm0-19.615c2.217 0 3.996 1.78 3.996 3.996 0 2.215-1.779 3.995-3.996 3.995-2.215 0-3.995-1.78-3.995-3.995 0-2.216 1.78-3.996 3.995-3.996zm-18.161 18.525c-2.216 0-3.995-1.779-3.995-3.996 0-2.215 1.779-3.995 3.995-3.995s3.996 1.78 3.996 3.995c0 2.216-1.78 3.996-3.996 3.996zm18.161 10.533c-2.215 0-3.995-1.779-3.995-3.995s1.78-3.995 3.995-3.995c2.217 0 3.996 1.779 3.996 3.995s-1.779 3.995-3.996 3.995z" fill="#fff"/>
</g>
</svg>
