<?xml version="1.0" encoding="UTF-8" standalone="no"?>
<svg xmlns:sketch="http://www.bohemiancoding.com/sketch/ns" xmlns="http://www.w3.org/2000/svg" height="56px" width="214px" version="1.1" xmlns:xlink="http://www.w3.org/1999/xlink" viewBox="0 0 214 56"><!-- Generator: Sketch 3.3.2 (12043) - http://www.bohemiancoding.com/sketch -->
 <title>wpl-28-logo</title>
 <desc>Created with Sketch.</desc>
 <defs>
  <linearGradient id="linearGradient-1" y1="49.999%" y2="49.999%">
   <stop stop-color="#E01616" offset=".0054"/>
   <stop stop-color="#E21F17" offset=".2767"/>
   <stop stop-color="#E9391A" offset=".7262"/>
   <stop stop-color="#ED4B1C" offset=".9944"/>
  </linearGradient>
 </defs>
 <g id="Page-1" fill-rule="evenodd" sketch:type="MSPage" fill="none">
  <g id="logo-2" sketch:type="MSLayerGroup">
   <path id="Shape" sketch:type="MSShapeGroup" fill="url(#linearGradient-1)" d="m32 17.587c-16.692 0-30.392 7.672-31.862 17.461h-0.138v20.952h33.314v-0.02c17.063-0.415 30.686-8.843 30.686-19.186 0-10.607-14.327-19.207-32-19.207zm0.438 32.302c-13.558 0-24.548-6.449-24.548-14.404 0-7.956 10.991-14.405 24.548-14.405s24.548 6.449 24.548 14.405c0 7.954-10.99 14.404-24.548 14.404z"/>
   <g id="Group" sketch:type="MSShapeGroup" transform="translate(12)">
    <path id="Shape" fill="#1B8ECD" d="m39.333 13.901l-19.333 12.578v20.521l6.667-4.414v-7.501c0-2.836 1.5-4.8 2-5.297l2-1.323c1.188-0.786 2.666 0.889 2.666 1.986v7.723l6.667-4.414v-19.859h-0.667z"/>
    <path id="Shape" fill="#2BAAE1" d="m30.667 7.414v-3.442l-2.667-1.324v2.913l-8-5.561v26.479l-19.333-12.578h-0.667v19.859l20 13.24v-19.858l20-13.24-9.333-6.488zm-22 26.016l-4.667-2.979v-5.958l4.667 2.979v5.958zm7.333 4.591l-4.667-2.937v-5.958l4.667 2.938v5.957z"/>
    <path id="Shape" fill="#3FC5F3" d="m20 27.142v-27.142l-20 13.901 20 13.241zm10.667-23.17l-2.667-1.324 2.667-1.324 2.666 1.324-2.666 1.324z"/>
    <path id="Shape" fill="#1B8ECD" d="m30.667 3.972l2.666-1.324v8.605l-2.666 1.324v-8.605z"/>
   </g>
  </g>
  <g id="YOURLOGO-+-YOUR-DESCRIPTION" transform="translate(64 12)" sketch:type="MSLayerGroup">
   <path id="YOUR-DESCRIPTION" sketch:type="MSShapeGroup" fill="#9B9B9B" d="m2.778 4.054v1.946h1.099v-1.918l1.855-3.08h-1.225l-1.162 1.974-1.169-1.974h-1.232l1.834 3.052zm4.256-0.532c0-0.2193 0.0245-0.4317 0.0735-0.637s0.1272-0.3885 0.2345-0.5495 0.2473-0.2893 0.42-0.385 0.3827-0.1435 0.63-0.1435 0.4573 0.0478 0.63 0.1435 0.3127 0.224 0.42 0.385 0.1855 0.3442 0.2345 0.5495 0.0735 0.4177 0.0735 0.637c0 0.21-0.0245 0.4142-0.0735 0.6125s-0.1272 0.3768-0.2345 0.5355-0.2473 0.2858-0.42 0.3815-0.3827 0.1435-0.63 0.1435-0.4573-0.0478-0.63-0.1435-0.3127-0.2228-0.42-0.3815-0.1855-0.3372-0.2345-0.5355-0.0735-0.4025-0.0735-0.6125zm-1.099 0c0 0.364 0.056 0.7035 0.168 1.0185s0.273 0.5892 0.483 0.8225 0.4678 0.4165 0.7735 0.5495 0.6498 0.1995 1.0325 0.1995c0.3873 0 0.7327-0.0665 1.036-0.1995s0.56-0.3162 0.77-0.5495 0.371-0.5075 0.483-0.8225 0.168-0.6545 0.168-1.0185c0-0.3733-0.056-0.7198-0.168-1.0395s-0.273-0.5985-0.483-0.8365-0.4667-0.4247-0.77-0.56c-0.3033-0.13533-0.6487-0.203-1.036-0.203-0.3827 0-0.7268 0.06767-1.0325 0.203-0.3057 0.1353-0.5635 0.322-0.7735 0.56s-0.371 0.5168-0.483 0.8365-0.168 0.6662-0.168 1.0395zm9.905 0.588v-3.108h-1.099v3.108c0 0.3733-0.075 0.6475-0.224 0.8225s-0.42 0.2625-0.812 0.2625c-0.224 0-0.402-0.0315-0.535-0.0945-0.134-0.063-0.237-0.1447-0.312-0.245s-0.124-0.2158-0.147-0.3465-0.035-0.2637-0.035-0.399v-3.108h-1.099v3.108c0 0.6813 0.185 1.1853 0.557 1.512 0.371 0.3267 0.894 0.49 1.571 0.49 0.667 0 1.19-0.1645 1.568-0.4935s0.567-0.8318 0.567-1.5085zm2.044-0.847v-1.407h1.204c0.252 0 0.441 0.0548 0.567 0.1645s0.189 0.2858 0.189 0.5285c0 0.252-0.063 0.434-0.189 0.546s-0.315 0.168-0.567 0.168h-1.204zm-1.099-2.261v4.998h1.099v-1.953h1.099c0.275 0 0.474 0.0607 0.595 0.182s0.201 0.3127 0.238 0.574c0.028 0.2007 0.049 0.4107 0.063 0.63s0.051 0.4083 0.112 0.567h1.099c-0.051-0.07-0.09-0.1552-0.116-0.2555-0.025-0.1003-0.044-0.2065-0.056-0.3185-0.011-0.112-0.019-0.2217-0.024-0.329s-0.009-0.2007-0.014-0.28c-0.009-0.126-0.027-0.252-0.052-0.378-0.026-0.126-0.067-0.2415-0.123-0.3465s-0.128-0.196-0.217-0.273-0.201-0.1342-0.336-0.1715v-0.014c0.28-0.112 0.482-0.2753 0.606-0.49 0.123-0.2147 0.185-0.469 0.185-0.763 0-0.1913-0.034-0.3698-0.101-0.5355-0.068-0.1657-0.166-0.3115-0.294-0.4375-0.129-0.126-0.283-0.2252-0.462-0.2975-0.18-0.0723-0.382-0.1085-0.606-0.1085h-2.695zm8.099 4.074v-3.15h0.784c0.271 0 0.498 0.0385 0.682 0.1155 0.185 0.077 0.333 0.1878 0.445 0.3325s0.192 0.3185 0.241 0.5215c0.05 0.203 0.074 0.4305 0.074 0.6825 0 0.2753-0.035 0.5087-0.105 0.7s-0.163 0.3465-0.28 0.4655-0.25 0.2042-0.399 0.2555-0.303 0.077-0.462 0.077h-0.98zm-1.099-4.074v4.998h2.156c0.383 0 0.715-0.0642 0.997-0.1925 0.283-0.1283 0.518-0.3045 0.708-0.5285 0.189-0.224 0.33-0.49 0.423-0.798s0.14-0.644 0.14-1.008c0-0.4153-0.057-0.777-0.171-1.085-0.115-0.308-0.273-0.5647-0.476-0.77-0.204-0.2053-0.444-0.3593-0.722-0.462-0.277-0.1027-0.577-0.154-0.899-0.154h-2.156zm5.187 0v4.998h3.794v-0.924h-2.695v-1.225h2.422v-0.854h-2.422v-1.071h2.639v-0.924h-3.738zm5.285 3.339h-1.064c-0.005 0.308 0.051 0.574 0.168 0.798s0.274 0.4083 0.473 0.553c0.198 0.1447 0.426 0.2508 0.686 0.3185 0.259 0.0677 0.526 0.1015 0.801 0.1015 0.341 0 0.64-0.0397 0.899-0.119 0.26-0.0793 0.476-0.1902 0.652-0.3325 0.175-0.1423 0.306-0.3115 0.395-0.5075s0.133-0.4083 0.133-0.637c0-0.28-0.059-0.5098-0.178-0.6895-0.12-0.1797-0.261-0.3232-0.424-0.4305s-0.328-0.1855-0.494-0.2345c-0.165-0.049-0.295-0.0828-0.388-0.1015-0.313-0.0793-0.566-0.1447-0.76-0.196-0.193-0.0513-0.345-0.1027-0.454-0.154-0.11-0.0513-0.184-0.1073-0.221-0.168s-0.056-0.14-0.056-0.238c0-0.1073 0.023-0.196 0.07-0.266s0.106-0.1283 0.179-0.175c0.072-0.0467 0.152-0.0793 0.241-0.098s0.177-0.028 0.266-0.028c0.135 0 0.26 0.0117 0.375 0.035 0.114 0.0233 0.215 0.063 0.304 0.119s0.16 0.133 0.214 0.231c0.053 0.098 0.085 0.2217 0.094 0.371h1.064c0-0.2893-0.055-0.5355-0.164-0.7385-0.11-0.203-0.258-0.3698-0.445-0.5005s-0.4-0.2252-0.641-0.2835c-0.24-0.05833-0.491-0.0875-0.752-0.0875-0.224 0-0.448 0.03033-0.672 0.091-0.224 0.0607-0.425 0.154-0.602 0.28s-0.321 0.2835-0.43 0.4725c-0.11 0.189-0.165 0.4118-0.165 0.6685 0 0.2287 0.043 0.4235 0.129 0.5845 0.087 0.161 0.2 0.2952 0.34 0.4025s0.299 0.1948 0.476 0.2625 0.359 0.1248 0.546 0.1715c0.182 0.0513 0.362 0.098 0.539 0.14s0.336 0.091 0.476 0.147 0.253 0.126 0.339 0.21c0.087 0.084 0.13 0.1937 0.13 0.329 0 0.126-0.033 0.2298-0.098 0.3115s-0.147 0.1458-0.245 0.1925-0.203 0.0782-0.315 0.0945-0.217 0.0245-0.315 0.0245c-0.145 0-0.285-0.0175-0.42-0.0525s-0.253-0.0887-0.353-0.161c-0.101-0.0723-0.181-0.1668-0.242-0.2835s-0.091-0.259-0.091-0.427zm7.126-1.659h1.064c-0.033-0.2893-0.112-0.546-0.238-0.77s-0.286-0.4118-0.479-0.5635c-0.194-0.1517-0.413-0.2672-0.658-0.3465-0.246-0.07933-0.506-0.119-0.781-0.119-0.383 0-0.727 0.06767-1.033 0.203-0.305 0.1353-0.563 0.322-0.773 0.56s-0.371 0.5168-0.483 0.8365-0.168 0.6662-0.168 1.0395c0 0.364 0.056 0.7035 0.168 1.0185s0.273 0.5892 0.483 0.8225 0.468 0.4165 0.773 0.5495c0.306 0.133 0.65 0.1995 1.033 0.1995 0.308 0 0.59-0.0467 0.847-0.14s0.481-0.2287 0.672-0.406 0.345-0.392 0.462-0.644 0.189-0.5343 0.217-0.847h-1.064c-0.042 0.336-0.157 0.6067-0.347 0.812-0.189 0.2053-0.451 0.308-0.787 0.308-0.247 0-0.457-0.0478-0.63-0.1435s-0.313-0.2228-0.42-0.3815-0.185-0.3372-0.235-0.5355c-0.049-0.1983-0.073-0.4025-0.073-0.6125 0-0.2193 0.024-0.4317 0.073-0.637 0.05-0.2053 0.128-0.3885 0.235-0.5495s0.247-0.2893 0.42-0.385 0.383-0.1435 0.63-0.1435c0.135 0 0.265 0.0222 0.389 0.0665 0.123 0.0443 0.234 0.1062 0.332 0.1855s0.18 0.1715 0.245 0.2765 0.107 0.2205 0.126 0.3465zm2.954 0.581v-1.407h1.204c0.252 0 0.441 0.0548 0.567 0.1645s0.189 0.2858 0.189 0.5285c0 0.252-0.063 0.434-0.189 0.546s-0.315 0.168-0.567 0.168h-1.204zm-1.099-2.261v4.998h1.099v-1.953h1.099c0.275 0 0.474 0.0607 0.595 0.182s0.201 0.3127 0.238 0.574c0.028 0.2007 0.049 0.4107 0.063 0.63s0.051 0.4083 0.112 0.567h1.099c-0.051-0.07-0.09-0.1552-0.115-0.2555-0.026-0.1003-0.045-0.2065-0.056-0.3185-0.012-0.112-0.02-0.2217-0.025-0.329s-0.009-0.2007-0.014-0.28c-0.009-0.126-0.027-0.252-0.053-0.378-0.025-0.126-0.066-0.2415-0.122-0.3465s-0.128-0.196-0.217-0.273-0.201-0.1342-0.336-0.1715v-0.014c0.28-0.112 0.482-0.2753 0.605-0.49 0.124-0.2147 0.186-0.469 0.186-0.763 0-0.1913-0.034-0.3698-0.102-0.5355-0.067-0.1657-0.165-0.3115-0.294-0.4375-0.128-0.126-0.282-0.2252-0.462-0.2975-0.179-0.0723-0.381-0.1085-0.605-0.1085h-2.695zm5.054 0v4.998h1.099v-4.998h-1.099zm3.164 2.352v-1.498h0.854c0.126 0 0.247 0.0093 0.364 0.028s0.219 0.0548 0.308 0.1085 0.16 0.1295 0.214 0.2275c0.053 0.098 0.08 0.2263 0.08 0.385s-0.027 0.287-0.08 0.385c-0.054 0.098-0.125 0.1738-0.214 0.2275s-0.191 0.0898-0.308 0.1085-0.238 0.028-0.364 0.028h-0.854zm-1.099-2.352v4.998h1.099v-1.792h1.155c0.313 0 0.579-0.0455 0.798-0.1365s0.398-0.2112 0.535-0.3605c0.138-0.1493 0.238-0.3208 0.302-0.5145 0.063-0.1937 0.094-0.3908 0.094-0.5915 0-0.2053-0.031-0.4037-0.094-0.595-0.064-0.1913-0.164-0.3617-0.302-0.511-0.137-0.1493-0.316-0.2695-0.535-0.3605s-0.485-0.1365-0.798-0.1365h-2.254zm5.775 0.924v4.074h1.099v-4.074h1.498v-0.924h-4.095v0.924h1.498zm3.171-0.924v4.998h1.099v-4.998h-1.099zm2.947 2.52c0-0.2193 0.024-0.4317 0.074-0.637 0.049-0.2053 0.127-0.3885 0.234-0.5495s0.247-0.2893 0.42-0.385 0.383-0.1435 0.63-0.1435 0.457 0.0478 0.63 0.1435 0.313 0.224 0.42 0.385 0.185 0.3442 0.234 0.5495c0.05 0.2053 0.074 0.4177 0.074 0.637 0 0.21-0.024 0.4142-0.074 0.6125-0.049 0.1983-0.127 0.3768-0.234 0.5355s-0.247 0.2858-0.42 0.3815-0.383 0.1435-0.63 0.1435-0.457-0.0478-0.63-0.1435-0.313-0.2228-0.42-0.3815-0.185-0.3372-0.234-0.5355c-0.05-0.1983-0.074-0.4025-0.074-0.6125zm-1.099 0c0 0.364 0.056 0.7035 0.168 1.0185s0.273 0.5892 0.483 0.8225 0.468 0.4165 0.774 0.5495c0.305 0.133 0.649 0.1995 1.032 0.1995 0.387 0 0.733-0.0665 1.036-0.1995s0.56-0.3162 0.77-0.5495 0.371-0.5075 0.483-0.8225 0.168-0.6545 0.168-1.0185c0-0.3733-0.056-0.7198-0.168-1.0395s-0.273-0.5985-0.483-0.8365-0.467-0.4247-0.77-0.56c-0.303-0.13533-0.649-0.203-1.036-0.203-0.383 0-0.727 0.06767-1.032 0.203-0.306 0.1353-0.564 0.322-0.774 0.56s-0.371 0.5168-0.483 0.8365-0.168 0.6662-0.168 1.0395zm5.663-2.52v4.998h1.029v-3.346h0.014l2.079 3.346h1.099v-4.998h-1.029v3.353h-0.014l-2.086-3.353h-1.092z"/>
   <path id="YOURLOGO" sketch:type="MSShapeGroup" fill="#2BAAE1" d="m8.17 24.66l-6.93-12.66h2.91l4.92 9.18 0.51 1.83h0.03l0.54-1.89 4.71-9.12h2.67l-6.87 12.63v8.37h-2.49v-8.34zm11.25-2.16c0-3.5 0.74-6.185 2.22-8.055s3.59-2.805 6.33-2.805c1.48 0 2.76 0.26 3.84 0.78s1.975 1.255 2.685 2.205 1.235 2.09 1.575 3.42 0.51 2.815 0.51 4.455c0 3.5-0.745 6.185-2.235 8.055s-3.615 2.805-6.375 2.805c-1.46 0-2.725-0.26-3.795-0.78s-1.96-1.255-2.67-2.205-1.235-2.09-1.575-3.42-0.51-2.815-0.51-4.455zm2.64 0c0 1.16 0.115 2.26 0.345 3.3s0.585 1.955 1.065 2.745 1.095 1.42 1.845 1.89 1.635 0.705 2.655 0.705c1.86 0 3.32-0.705 4.38-2.115s1.59-3.585 1.59-6.525c0-1.14-0.115-2.235-0.345-3.285s-0.59-1.97-1.08-2.76-1.11-1.42-1.86-1.89-1.645-0.705-2.685-0.705c-1.84 0-3.285 0.705-4.335 2.115s-1.575 3.585-1.575 6.525zm30.81-10.5h2.4v14.01c0 1.26-0.165 2.35-0.495 3.27s-0.8 1.675-1.41 2.265-1.345 1.025-2.205 1.305-1.81 0.42-2.85 0.42c-2.48 0-4.35-0.56-5.61-1.68s-1.89-2.82-1.89-5.1v-14.49h2.49v13.32c0 1.06 0.105 1.955 0.315 2.685s0.525 1.32 0.945 1.77 0.945 0.775 1.575 0.975 1.365 0.3 2.205 0.3c1.62 0 2.78-0.445 3.48-1.335s1.05-2.355 1.05-4.395v-13.32zm7.5 0.21c0.76-0.14 1.635-0.25 2.625-0.33s1.895-0.12 2.715-0.12c0.92 0 1.795 0.1 2.625 0.3s1.56 0.53 2.19 0.99 1.135 1.06 1.515 1.8 0.57 1.64 0.57 2.7c0 1.64-0.45 2.97-1.35 3.99s-2.04 1.7-3.42 2.04l1.44 1.11 5.22 8.31h-2.91l-5.79-9.06-2.94-0.45v9.51h-2.49v-20.79zm5.4 1.71h-0.81c-0.28 0-0.55 0.01-0.81 0.03s-0.505 0.04-0.735 0.06-0.415 0.05-0.555 0.09v7.74h2.34c1.38 0 2.52-0.34 3.42-1.02s1.35-1.74 1.35-3.18c0-1.08-0.37-1.97-1.11-2.67s-1.77-1.05-3.09-1.05zm24.99 19.08h-13.29v-21h4.11v17.34h9.18v3.66zm1.47-10.5c0-3.5 0.77-6.195 2.31-8.085s3.74-2.835 6.6-2.835c1.5 0 2.81 0.26 3.93 0.78s2.05 1.26 2.79 2.22 1.29 2.11 1.65 3.45 0.54 2.83 0.54 4.47c0 3.5-0.77 6.195-2.33 8.085-1.55 1.89-3.74 2.835-6.58 2.835-1.52 0-2.84-0.26-3.96-0.78s-2.045-1.26-2.775-2.22-1.275-2.11-1.635-3.45-0.54-2.83-0.54-4.47zm4.32 0c0 1.06 0.09 2.035 0.27 2.925s0.455 1.655 0.825 2.295 0.845 1.14 1.425 1.5 1.27 0.54 2.07 0.54c1.46 0 2.59-0.57 3.39-1.71s1.2-2.99 1.2-5.55c0-1.02-0.08-1.97-0.25-2.85-0.18-0.88-0.44-1.65-0.8-2.31s-0.83-1.175-1.41-1.545-1.29-0.555-2.13-0.555c-1.46 0-2.59 0.585-3.39 1.755s-1.2 3.005-1.2 5.505zm23.85-0.45h7.83v9.36c-0.84 0.7-1.84 1.21-3.01 1.53-1.18 0.32-2.33 0.48-3.47 0.48-1.34 0-2.58-0.21-3.73-0.63-1.16-0.42-2.15-1.075-2.99-1.965s-1.5-2.025-1.98-3.405-0.72-3.02-0.72-4.92c0-1.98 0.28-3.665 0.85-5.055 0.58-1.39 1.32-2.52 2.26-3.39 0.93-0.87 1.97-1.5 3.13-1.89s2.34-0.585 3.54-0.585 2.25 0.09 3.17 0.27c0.91 0.18 1.63 0.37 2.17 0.57l-0.84 3.45c-0.5-0.2-1.06-0.355-1.68-0.465s-1.41-0.165-2.37-0.165c-0.86 0-1.65 0.13-2.37 0.39s-1.34 0.685-1.87 1.275c-0.54 0.59-0.94 1.345-1.24 2.265-0.29 0.92-0.43 2.04-0.43 3.36 0 1.26 0.14 2.345 0.42 3.255s0.67 1.66 1.17 2.25 1.08 1.025 1.76 1.305c0.67 0.28 1.38 0.42 2.14 0.42 0.52 0 1.03-0.065 1.53-0.195s0.92-0.325 1.26-0.585v-3.96l-4.53-0.48v-2.49zm10.2 0.45c0-3.5 0.77-6.195 2.31-8.085s3.74-2.835 6.6-2.835c1.5 0 2.81 0.26 3.93 0.78s2.05 1.26 2.79 2.22 1.29 2.11 1.65 3.45 0.54 2.83 0.54 4.47c0 3.5-0.77 6.195-2.32 8.085-1.56 1.89-3.75 2.835-6.59 2.835-1.52 0-2.84-0.26-3.96-0.78s-2.04-1.26-2.77-2.22c-0.74-0.96-1.28-2.11-1.64-3.45s-0.54-2.83-0.54-4.47zm4.32 0c0 1.06 0.09 2.035 0.27 2.925s0.45 1.655 0.83 2.295c0.37 0.64 0.84 1.14 1.42 1.5s1.27 0.54 2.07 0.54c1.46 0 2.59-0.57 3.39-1.71s1.2-2.99 1.2-5.55c0-1.02-0.08-1.97-0.26-2.85-0.17-0.88-0.43-1.65-0.79-2.31s-0.83-1.175-1.41-1.545-1.29-0.555-2.13-0.555c-1.46 0-2.59 0.585-3.39 1.755s-1.2 3.005-1.2 5.505z"/>
  </g>
 </g>
</svg>
