<?xml version="1.0" encoding="UTF-8" standalone="no"?>
<!-- Generator: Adobe Illustrator 16.0.0, SVG Export Plug-In . SVG Version: 6.00 Build 0)  -->
<!DOCTYPE svg  PUBLIC '-//W3C//DTD SVG 1.1//EN'  'http://www.w3.org/Graphics/SVG/1.1/DTD/svg11.dtd' [
	<!ENTITY ns_extend "http://ns.adobe.com/Extensibility/1.0/">
	<!ENTITY ns_ai "http://ns.adobe.com/AdobeIllustrator/10.0/">
	<!ENTITY ns_graphs "http://ns.adobe.com/Graphs/1.0/">
	<!ENTITY ns_vars "http://ns.adobe.com/Variables/1.0/">
	<!ENTITY ns_imrep "http://ns.adobe.com/ImageReplacement/1.0/">
	<!ENTITY ns_sfw "http://ns.adobe.com/SaveForWeb/1.0/">
	<!ENTITY ns_custom "http://ns.adobe.com/GenericCustomNamespace/1.0/">
	<!ENTITY ns_adobe_xpath "http://ns.adobe.com/XPath/1.0/">
]>
<svg id="Layer_1" xmlns="http://www.w3.org/2000/svg" enable-background="new 0 0 145 60" xml:space="preserve" height="60px" viewBox="0 0 145 60" width="145px" version="1.1" y="0px" x="0px" xmlns:xlink="http://www.w3.org/1999/xlink">
<g id="Page_1">
	<g id="Layer_1_1_">
		<path id="Shape" d="m83.552 4.536h-3.234l3.363 3.649v1.737h-6.927v-2.032h3.362l-3.362-3.65v-1.74h6.798v2.036zm-8.171 0h-3.234l3.363 3.649v1.737h-6.927v-2.032h3.363l-3.363-3.65v-1.74h6.798v2.036zm-8.091 0.083h-3.49v3.185h3.489v2.119h-5.97v-7.423h5.97v2.119h0.001z" fill="#131313"/>
		<path id="Shape_1_" d="m56.564 53.083l-3.546-39.771h38.963l-3.549 39.766-15.955 4.422-15.913-4.417z" fill="#1572B6"/>
		<path id="Shape_2_" d="m72.5 54.119l12.894-3.574 3.033-33.981h-15.927v37.555z" fill="#33A9DC"/>
		<g id="Group" transform="translate(55 142)">
			<path id="Shape_3_" d="m17.5-111.03h6.455l0.445-4.995h-6.9v-4.878h12.232l-0.117 1.309-1.198 13.442h-10.917v-4.88z" fill="#fff"/>
			<path id="Shape_4_" d="m17.529-98.359l-0.021 0.006-5.432-1.467-0.347-3.89h-4.897l0.683 7.658 9.992 2.773 0.022-0.006v-5.074z" fill="#EBEBEB"/>
			<path id="Shape_5_" d="m23.54-106.36l-0.587 6.533-5.44 1.468v5.075l10-2.771 0.073-0.824 0.849-9.48h-4.895z" fill="#fff"/>
			<path id="Shape_6_" d="m17.518-120.9v4.878h-11.783l-0.098-1.097-0.222-2.473-0.117-1.31h12.22z" fill="#EBEBEB"/>
			<path id="Shape_7_" d="m17.5-111.03v4.878h-5.364l-0.098-1.097-0.223-2.473-0.116-1.309h5.801z" fill="#EBEBEB"/>
		</g>
	</g>
</g>
</svg>
