<?xml version="1.0" encoding="UTF-8" standalone="no"?>
<!-- Generator: Adobe Illustrator 16.0.0, SVG Export Plug-In . SVG Version: 6.00 Build 0)  -->
<!DOCTYPE svg  PUBLIC '-//W3C//DTD SVG 1.1//EN'  'http://www.w3.org/Graphics/SVG/1.1/DTD/svg11.dtd' [
	<!ENTITY ns_extend "http://ns.adobe.com/Extensibility/1.0/">
	<!ENTITY ns_ai "http://ns.adobe.com/AdobeIllustrator/10.0/">
	<!ENTITY ns_graphs "http://ns.adobe.com/Graphs/1.0/">
	<!ENTITY ns_vars "http://ns.adobe.com/Variables/1.0/">
	<!ENTITY ns_imrep "http://ns.adobe.com/ImageReplacement/1.0/">
	<!ENTITY ns_sfw "http://ns.adobe.com/SaveForWeb/1.0/">
	<!ENTITY ns_custom "http://ns.adobe.com/GenericCustomNamespace/1.0/">
	<!ENTITY ns_adobe_xpath "http://ns.adobe.com/XPath/1.0/">
]>
<svg id="Layer_1" xmlns="http://www.w3.org/2000/svg" enable-background="new 0 0 145 60" xml:space="preserve" height="60px" viewBox="0 0 145 60" width="145px" version="1.1" y="0px" x="0px" xmlns:xlink="http://www.w3.org/1999/xlink">
	<g id="Rectangle_5_1_" enable-background="new    ">
		<g id="Rectangle_5">
				<path d="m69.602 36.582h10.214v-9.671h-10.214v9.671zm10.213-19.343v9.672h10.211v-9.672h-10.211zm10.211 19.343h10.215v-9.671h-10.214v9.671zm-73.639-11.283h-11.019v10.746h11.557v-10.478h9.406v-9.403h-9.944v9.135zm109.11-9.403v9.671h10.212v-9.671h-10.21z"/>
		</g>
	</g>
	<g id="Rectangle_6_copy_1_" enable-background="new    ">
		<g id="Rectangle_6_copy">
				<path d="m27.944 26.642h-9.407v9.671h19.62v-17.194h-10.213v7.523zm11.825 9.94h4.838v-27.403h5.106v-6.179h-9.944v33.582zm84.391-9.94v-7.523h-10.211v17.195h19.618v-9.671h-9.41z" fill="#7619A0"/>
		</g>
	</g>
	<g id="Rectangle_9_1_" enable-background="new    ">
		<g id="Rectangle_9">
				<path d="m55.895 10.253h-10.213v26.329h22.308v-9.671h-12.095v-16.658zm45.955-7.253v33.582h10.215v-33.582h-10.21z" fill="#E5D952"/>
		</g>
	</g>
	<g id="realtyna_1_" enable-background="new    ">
				<path d="m16.532 55.56c-0.259-0.278-0.54-0.668-0.846-1.173l-1.793-2.661c-0.66-1.078-1.608-2.1-2.307-2.525 0.537-0.156 1.293-0.381 1.73-0.677 0.439-0.293 0.786-0.668 1.045-1.127 0.259-0.457 0.387-0.981 0.387-1.569 0-0.726-0.204-1.368-0.611-1.93s-1-0.997-1.773-1.305c-0.774-0.308-1.139-0.46-2.164-0.46h-6.444v0.282c0.652 0 1.124 0.143 1.417 0.429 0.292 0.284 0.438 0.771 0.438 1.465v10.118c0 0.563-0.112 1.013-0.337 1.354-0.223 0.34-0.729 0.511-1.517 0.511v0.284h5.708v-0.265c-0.407-0.014-0.733-0.057-0.978-0.134-0.245-0.073-0.453-0.247-0.621-0.518-0.171-0.273-0.256-0.682-0.256-1.232v-4.617h0.479c0.605 0 1.103 0.131 1.494 0.393 0.391 0.261 0.77 0.686 1.137 1.273s1.488 1.639 2.291 3.148c0.25 0.483 0.88 1.134 1.349 1.951h3.497v-0.284c-0.23-0.032-0.444-0.093-0.642-0.183-0.197-0.088-0.425-0.27-0.683-0.548zm-8.239-6.557h-0.683v-6.067h0.816c0.741 0 1.364 0.113 1.871 0.344 0.505 0.228 0.886 0.56 1.141 0.995 0.256 0.434 0.383 0.966 0.383 1.593 0 1.013-0.296 1.789-0.887 2.328-0.593 0.538-1.473 0.807-2.641 0.807zm23.221 5.724c-0.253 0.382-0.578 0.651-0.968 0.809s-0.895 0.235-1.513 0.235h-0.917c-1.292 0-2.206-0.602-2.206-1.805v-4.156h2.684c0.544 0 1.012 0.107 1.407 0.323 0.393 0.215 0.641 0.644 0.743 1.283h0.295v-4.235h-0.295c-0.055 0.602-0.245 1.057-0.576 1.364-0.329 0.305-0.854 0.458-1.575 0.458h-2.683v-6.069h3.296c0.531 0 0.948 0.095 1.254 0.282 0.306 0.184 0.542 0.453 0.708 0.808 0.167 0.354 0.317 0.801 0.454 1.343h0.295l-0.122-3.234h-10.029v0.283h0.102c0.761 0 1.248 0.185 1.458 0.55 0.21 0.367 0.316 0.813 0.316 1.343v10.118c0 0.557-0.116 1.006-0.347 1.35-0.231 0.343-0.742 0.516-1.529 0.516v0.284h10.508l0.223-3.472h-0.294c-0.204 0.698-0.433 1.241-0.689 1.622zm17.65-0.243l-4.777-12.49h-1.409l-4.262 11.59c-0.38 1.006-0.774 1.697-1.182 2.075-0.408 0.376-0.846 0.587-1.314 0.632v0.284h4.504v-0.284c-0.374-0.052-0.697-0.155-0.968-0.309-0.273-0.153-0.409-0.453-0.409-0.897 0-0.289 0.069-0.609 0.205-0.962l1.071-3.22h5.021l1.253 3.34c0.015 0.036 0.047 0.144 0.098 0.318 0.051 0.173 0.092 0.336 0.123 0.489 0.03 0.154 0.044 0.273 0.044 0.358 0 0.536-0.485 0.831-1.457 0.883v0.284h5.77v-0.284c-0.536-0.085-0.988-0.247-1.354-0.486-0.365-0.239-0.685-0.679-0.957-1.321zm-8.194-4.273l2.024-5.837 2.254 5.837h-4.278zm23.331 5.039c-0.625 0.347-1.291 0.521-1.998 0.521h-1.04c-0.693 0-1.159-0.155-1.396-0.466-0.237-0.31-0.356-0.765-0.356-1.358v-9.657c0-0.576 0.12-1.032 0.361-1.368s0.753-0.506 1.534-0.506v-0.283h-5.751v0.283c0.674 0 1.15 0.156 1.434 0.466 0.281 0.311 0.423 0.78 0.423 1.408v10.137c0 0.569-0.115 1.023-0.342 1.359-0.229 0.336-0.732 0.506-1.515 0.506v0.284h10.093l0.252-2.931h-0.296c-0.489 1.261-0.777 1.259-1.403 1.605zm18.205-13.295c-0.319 0.117-0.721 0.177-1.203 0.177h-11.295c-0.484 0-0.885-0.06-1.203-0.177h-0.295l-0.082 3.393h0.316c0.284-0.954 0.577-1.577 0.877-1.866 0.298-0.293 0.686-0.439 1.161-0.439h3.879v11.385c0 0.563-0.116 1.013-0.348 1.354-0.231 0.34-0.738 0.511-1.518 0.511v0.284h5.989v-0.284c-0.523 0-0.92-0.084-1.192-0.252-0.273-0.165-0.453-0.381-0.541-0.646s-0.132-0.588-0.132-0.968v-11.385h3.607c0.518 0 0.954 0.138 1.312 0.408 0.356 0.271 0.61 0.904 0.759 1.897h0.286l-0.082-3.393h-0.295zm14.06 0.46c0.477 0.009 0.813 0.103 1.005 0.286 0.195 0.183 0.292 0.388 0.292 0.619 0 0.455-0.194 0.966-0.581 1.528l-2.244 3.194-2.793-3.822c-0.387-0.516-0.581-0.895-0.581-1.139 0-0.272 0.111-0.449 0.338-0.529 0.225-0.077 0.53-0.123 0.916-0.138v-0.283h-6.314v0.283c0.45 0 0.827 0.092 1.137 0.271 0.309 0.18 0.708 0.588 1.199 1.222l4.463 5.695v4.823c0 0.569-0.116 1.022-0.347 1.358-0.23 0.337-0.732 0.506-1.509 0.506v0.284h5.71v-0.284c-0.7 0-1.184-0.151-1.452-0.451-0.268-0.302-0.403-0.772-0.403-1.413v-5.071l3.042-4.507c0.597-0.836 1.188-1.444 1.772-1.82 0.585-0.374 1.247-0.579 1.988-0.613v-0.282h-5.638v0.283h-0.006zm21.424 0c0.757 0.105 1.315 0.316 1.683 0.633s0.551 0.912 0.551 1.78v9.026l-11.31-11.721h-4.1v0.282c0.686 0.099 1.485 0.569 2.396 1.412 0.114 0.105 0.245 0.223 0.386 0.354 0.144 0.13 0.245 0.226 0.307 0.284 0.067 0.066 0.121 0.11 0.163 0.138v9.559c0.012 1.302-0.731 2.011-2.231 2.129v0.284h5.358v-0.284c-0.814-0.06-1.374-0.329-1.675-0.809-0.303-0.481-0.454-1.062-0.454-1.742v-8.128l11.79 11.388h0.376v-12.172c0-0.432 0.041-0.807 0.122-1.127 0.083-0.319 0.262-0.601 0.539-0.839 0.281-0.239 0.705-0.387 1.274-0.447v-0.283h-5.178v0.283zm21.9 13.39c-0.367-0.238-0.688-0.679-0.959-1.32l-4.775-12.49h-1.409l-4.261 11.59c-0.38 1.006-0.772 1.697-1.182 2.075-0.408 0.375-0.846 0.587-1.315 0.632v0.284h4.505v-0.284c-0.374-0.052-0.696-0.155-0.968-0.309s-0.408-0.453-0.408-0.897c0-0.289 0.067-0.609 0.204-0.962l1.069-3.22h5.024l1.252 3.34c0.015 0.036 0.046 0.144 0.097 0.318 0.051 0.173 0.092 0.336 0.122 0.489 0.031 0.154 0.046 0.273 0.046 0.358 0 0.536-0.485 0.831-1.456 0.883v0.284h5.771v-0.284c-0.53-0.086-0.99-0.248-1.35-0.487zm-9.15-5.594l2.023-5.837 2.254 5.837h-4.27z"/>
	</g>
</svg>
