<?xml version="1.0" encoding="UTF-8" standalone="no"?>
<!-- Generator: Adobe Illustrator 16.0.0, SVG Export Plug-In . SVG Version: 6.00 Build 0)  -->
<!DOCTYPE svg  PUBLIC '-//W3C//DTD SVG 1.1//EN'  'http://www.w3.org/Graphics/SVG/1.1/DTD/svg11.dtd' [
	<!ENTITY ns_extend "http://ns.adobe.com/Extensibility/1.0/">
	<!ENTITY ns_ai "http://ns.adobe.com/AdobeIllustrator/10.0/">
	<!ENTITY ns_graphs "http://ns.adobe.com/Graphs/1.0/">
	<!ENTITY ns_vars "http://ns.adobe.com/Variables/1.0/">
	<!ENTITY ns_imrep "http://ns.adobe.com/ImageReplacement/1.0/">
	<!ENTITY ns_sfw "http://ns.adobe.com/SaveForWeb/1.0/">
	<!ENTITY ns_custom "http://ns.adobe.com/GenericCustomNamespace/1.0/">
	<!ENTITY ns_adobe_xpath "http://ns.adobe.com/XPath/1.0/">
]>
<svg id="Layer_1" xmlns="http://www.w3.org/2000/svg" enable-background="new -41.5 0 228 60" xml:space="preserve" height="60px" viewBox="-41.5 0 228 60" width="228px" version="1.1" y="0px" x="0px" xmlns:xlink="http://www.w3.org/1999/xlink">
			<path d="m46.048 20.155v-1.1h-9.158v1.1h0.275c1.832 0 2.748 0.488 2.748 1.465 0 0.611-1.252 4.548-3.755 11.813h-0.091l-4.671-14.378h-1.007l-4.854 14.378h-0.091l-0.458-1.557c-2.076-6.167-3.113-9.555-3.113-10.165 0-1.038 0.915-1.557 2.747-1.557h0.275v-1.1h-10.808v1.1h0.275c1.893 0 3.145 0.764 3.755 2.289 1.16 3.236 3.175 9.402 6.044 18.5h0.824l4.854-14.836h0.183l4.762 14.836h0.825c3.786-11.662 5.861-17.828 6.227-18.5 0.549-1.525 1.832-2.289 3.846-2.289h0.366zm6.595 3.114c-0.916 0-2.077 0.184-3.48 0.549-4.212 1.771-6.318 4.518-6.318 8.242 0 1.222 0.367 2.596 1.098 4.121 2.259 3.053 4.977 4.579 8.151 4.579h0.824c2.38 0 4.579-0.854 6.594-2.564 1.894-1.771 2.838-3.815 2.838-6.136 0-1.343-0.367-2.686-1.098-4.028-2.138-3.176-5.007-4.763-8.609-4.763zm5.769 10.898c-0.916 3.296-2.808 4.944-5.678 4.944h-0.458l-1.373-0.182c-2.87-1.1-4.304-3.42-4.304-6.962l0.366-2.473c1.039-3.051 2.808-4.579 5.311-4.579h0.642c0.732 0 1.404 0.153 2.015 0.458 2.442 1.22 3.663 3.389 3.663 6.502l-0.184 2.292zm41.118-4.763c-1.222-3.664-4.671-5.495-10.348-5.495h-7.968v1.007l1.19 0.092c1.283 0 1.923 1.191 1.923 3.571v7.602c0 1.954-0.793 2.931-2.382 2.931h-0.549l-0.549-0.091c-1.526 0-3.908-1.924-7.144-5.77h0.092c2.931-0.794 4.395-2.229 4.395-4.304v-0.55c0-0.427-0.06-0.763-0.182-1.008-0.671-2.32-2.991-3.479-6.96-3.479h-7.967v1.007c1.465 0.062 2.228 0.245 2.289 0.55 0.488 0 0.762 0.916 0.825 2.748v7.602c0 1.037-0.063 1.556-0.185 1.556 0 1.161-0.731 1.74-2.198 1.74h-0.731v1.008h9.707v-1.008h-0.823c-1.527 0-2.291-1.007-2.291-3.021v-2.656h0.642l0.824 0.916c2.808 3.603 4.365 5.526 4.67 5.77h14.743c1.283 0 2.503-0.183 3.665-0.55 3.783-1.344 5.678-3.846 5.678-7.51 0.001-0.672-0.122-1.559-0.366-2.658zm-29.855 2.382v-6.32h1.741l1.282 0.184c1.343 0.55 2.015 1.556 2.015 3.022-0.062 0.672-0.152 1.099-0.274 1.282-0.55 1.221-1.344 1.832-2.382 1.832h-2.382zm20.331 6.777h-0.458c-0.61 0-1.008-0.092-1.189-0.276-0.429 0-0.642-1.342-0.642-4.028v-8.792h2.197c4.029 0 6.045 2.168 6.045 6.501 0 4.396-1.985 6.595-5.953 6.595z" fill="#007D96"/>
		<path d="m109.97 19.056h-9.343v1.1h0.367c1.099 0 1.893 0.184 2.381 0.549 0.733 0.428 1.1 1.954 1.1 4.58v8.608c0 2.137-0.213 3.511-0.641 4.121-0.367 0.732-1.404 1.099-3.114 1.099h-0.093v1.008h11.175v-1.008c-0.855 0-1.65-0.121-2.381-0.366-0.917-0.427-1.375-1.77-1.375-4.029v-3.572h2.748c1.954 0 3.602-0.396 4.944-1.189 1.832-1.221 2.748-2.656 2.748-4.304v-0.916l-0.183-1.281c-0.93-2.935-3.71-4.4-8.35-4.4zm4.67 6.228c-0.244 2.624-1.435 3.938-3.571 3.938h-3.022v-8.334h2.105l1.465 0.092c2.016 0.549 3.023 1.893 3.023 4.029v0.275zm36.45 12.087c-0.307 0.794-1.527 1.191-3.663 1.191h-1.1c-1.283-0.061-1.924-0.214-1.924-0.458-0.61 0-0.916-1.405-0.916-4.213v-1.465h1.008c1.039 0 1.557 0.061 1.557 0.183 0.978 0 1.465 0.886 1.465 2.655h1.008v-7.326h-1.008l-0.09 1.19c0 1.099-0.947 1.65-2.84 1.65h-1.1v-5.313h2.473c2.076 0 3.267 0.214 3.571 0.642 0.429 0 0.824 0.824 1.191 2.471h0.916l-0.367-4.669h-14.377v1.007c1.037 0.062 1.557 0.123 1.557 0.184 1.099 0 1.648 1.251 1.648 3.754v7.053c0 2.137-0.764 3.204-2.29 3.204-1.892 0-4.425-1.953-7.601-5.86 2.99-0.733 4.486-2.198 4.486-4.396v-0.275l-0.091-1.007c-0.671-2.441-3.022-3.663-7.052-3.663h-7.968v1.007l1.283 0.092c1.221 0 1.831 1.252 1.831 3.755v6.501c0 1.16-0.122 2.138-0.366 2.931-0.426 0.611-1.16 0.916-2.197 0.916h-0.551v1.008h9.708v-1.008h-0.641c-1.1-0.061-1.649-0.213-1.649-0.458-0.609-0.061-0.916-1.709-0.916-4.945v-0.274h0.734c3.541 4.335 5.311 6.563 5.311 6.686h20.147l0.275-4.579h-0.733l-0.72 1.829zm-22.53-5.585h-2.475v-6.32h1.832l0.643 0.091c1.465 0 2.319 0.947 2.563 2.839v0.55c0 0.488-0.092 0.885-0.274 1.189-0.54 1.101-1.3 1.651-2.28 1.651zm49.27-1.374c-3.053-1.16-4.578-2.29-4.578-3.389v-0.367c0-0.854 0.824-1.435 2.471-1.74 1.831 0 3.146 0.978 3.938 2.931 0.123 0.855 0.244 1.282 0.365 1.282h1.008v-5.86h-1.008c-0.304 0.855-0.52 1.281-0.641 1.281-1.037-0.794-2.258-1.19-3.663-1.19h-0.367l-1.279 0.182c-2.442 0.794-3.665 2.138-3.665 4.03v0.184c0 2.015 1.253 3.634 3.756 4.854 3.663 1.404 5.494 2.809 5.494 4.213 0 1.282-0.885 2.046-2.656 2.289-0.854 0-1.771-0.213-2.747-0.641-1.832-1.282-2.748-2.747-2.748-4.396v-0.092h-1.099v6.776h1.008c0-0.243 0.215-0.763 0.642-1.558h0.092c1.465 1.038 2.808 1.558 4.029 1.558h0.549l1.557-0.183c2.809-0.916 4.213-2.594 4.213-5.037 0.02-2.014-1.54-3.723-4.65-5.127zm-14.56 0.183c-3.297-1.282-4.945-2.472-4.945-3.571v-0.367c0-0.854 0.824-1.435 2.473-1.74 2.26 0 3.663 1.405 4.213 4.213h1.1v-5.86h-1.008c-0.246 0.855-0.457 1.281-0.642 1.281-1.039-0.794-2.259-1.19-3.663-1.19h-0.367l-1.281 0.182c-2.442 0.732-3.661 2.138-3.661 4.213 0 1.893 1.127 3.449 3.387 4.671 3.907 1.525 5.86 2.961 5.86 4.304v0.184c0 1.221-0.885 1.954-2.654 2.197-0.855 0-1.771-0.213-2.748-0.641-1.831-1.282-2.747-2.777-2.747-4.487h-1.098v6.776h1.006c0.061-0.426 0.305-0.945 0.732-1.558 1.466 1.038 2.809 1.558 4.028 1.558h0.551l1.556-0.183c2.81-0.916 4.214-2.594 4.214-5.037 0-1.953-1.43-3.602-4.3-4.945z" fill="#4B4B4B"/>
		<circle cy="30" cx="-12.5" r="25" fill="#4B4B4B"/>
		<path d="m4.351 13.149c-4.884-4.64-10.5-6.96-16.85-6.96-7.327 0-13.523 3.022-18.591 9.067-3.419 4.458-5.128 9.372-5.128 14.745 0 6.776 2.656 12.668 7.967 17.674 4.702 4.028 9.922 6.045 15.661 6.045h0.275c7.265 0 13.461-3.054 18.59-9.158 3.358-4.396 5.037-9.218 5.037-14.47v-0.274c-0.001-6.23-2.321-11.784-6.961-16.669zm-26.191 36.082c-4.213-1.954-7.541-5.251-9.982-9.89-1.405-3.175-2.106-6.319-2.106-9.434 0-2.809 0.61-5.708 1.832-8.699h0.184l10.165 28.022h-0.093zm16.484 1.007c-2.381 0.794-4.762 1.191-7.143 1.191-2.137 0-4.152-0.306-6.044-0.916l6.411-18.774c0.122 0 0.977 2.29 2.564 6.869l4.304 11.63h-0.092zm1.281-14.102l-5.494-16.301h0.092c2.137 0 3.205-0.276 3.205-0.824v-0.275c-0.122-0.428-0.335-0.672-0.642-0.732l-5.952 0.275-6.044-0.275c-0.305 0.184-0.458 0.458-0.458 0.825h-0.092c0 0.671 0.886 1.007 2.657 1.007l0.458 0.092 3.297 9.249-4.671 14.012h-0.092l-7.784-23.261v-0.092h0.092c2.075 0 3.113-0.244 3.113-0.733v-0.274c0-0.367-0.213-0.641-0.641-0.825l-6.96 0.275h-0.367v-0.183c0.611-1.1 2.045-2.687 4.304-4.763 4.09-3.235 8.639-4.854 13.645-4.854 5.434 0 10.257 1.894 14.47 5.679v0.09l-0.274-0.09c-1.709 0-2.9 1.037-3.572 3.113v0.825c0 1.22 0.855 3.114 2.565 5.678 0.854 1.647 1.282 3.418 1.282 5.31 0 1.587-0.763 4.55-2.289 8.885l-1.466 5.036c-0.122-0.001-0.916-2.292-2.382-6.869zm5.77 9.981c-1.16 0.978-2.259 1.771-3.297 2.382h-0.092v-0.092l7.51-21.888c0.426-1.77 0.64-3.328 0.64-4.67l-0.183-2.198h0.183c1.711 3.42 2.566 6.869 2.566 10.349 0 6.227-2.442 11.6-7.327 16.117z" fill="#fff"/>
</svg>
